<?xml version="1.0" standalone="no"?>
<!DOCTYPE svg PUBLIC "-//W3C//DTD SVG 20010904//EN"
 "http://www.w3.org/TR/2001/REC-SVG-20010904/DTD/svg10.dtd">
<svg version="1.0" xmlns="http://www.w3.org/2000/svg"
 width="1200.000000pt" height="1200.000000pt" viewBox="0 0 1200.000000 1200.000000"
 preserveAspectRatio="xMidYMid meet">

<g transform="translate(0.000000,1200.000000) scale(0.100000,-0.100000)"
fill="#000000" stroke="none">
<path d="M3582 10234 c-29 -20 -76 -115 -205 -414 -182 -421 -380 -975 -515
-1435 l-59 -200 -71 -5 c-57 -4 -76 -10 -94 -28 -23 -22 -23 -26 -26 -323 -2
-253 0 -305 12 -331 14 -28 13 -42 -9 -172 -33 -187 -70 -460 -92 -681 -25
-260 -25 -1044 0 -1295 25 -240 61 -504 96 -695 27 -150 28 -161 13 -179 -15
-16 -17 -54 -20 -305 -2 -157 0 -301 3 -319 9 -48 53 -72 135 -72 l65 0 39
-138 c132 -462 335 -1029 534 -1487 122 -284 165 -369 194 -389 20 -14 255
-16 2418 -16 2163 0 2398 2 2418 16 29 20 71 105 195 389 205 475 403 1027
533 1488 l38 137 63 0 c142 0 143 1 143 372 0 267 -2 295 -18 321 -18 26 -18
31 -1 120 54 282 102 671 120 972 15 244 6 873 -15 1090 -22 220 -51 438 -86
643 -27 158 -29 176 -15 202 12 24 15 81 15 317 0 363 2 359 -139 365 l-54 3
-59 200 c-140 480 -334 1019 -525 1460 -124 284 -166 369 -195 389 -20 14
-255 16 -2418 16 -2164 0 -2398 -2 -2418 -16z m868 -170 c0 -4 -21 -61 -46
-128 -99 -258 -198 -574 -283 -906 -50 -194 -148 -640 -171 -777 l-12 -73
-469 0 c-345 0 -469 3 -469 11 0 46 171 586 285 899 112 309 317 807 391 953
l15 27 379 0 c209 0 380 -3 380 -6z m1340 -939 l0 -945 -830 0 -830 0 0 23 c0
29 67 362 110 547 101 437 273 991 393 1263 l26 57 565 0 566 0 0 -945z m1442
790 c178 -455 367 -1147 462 -1697 l7 -38 -861 0 -860 0 0 945 0 945 596 -2
597 -3 59 -150z m1124 58 c149 -321 337 -801 472 -1208 76 -228 172 -549 172
-574 0 -8 -142 -11 -557 -9 l-557 3 -14 80 c-21 130 -110 536 -159 730 -89
352 -220 769 -317 1004 -14 36 -26 66 -26 68 0 2 212 3 471 3 l470 0 45 -97z
m854 -2158 l0 -185 -3210 0 -3210 0 0 185 0 185 3210 0 3210 0 0 -185z m-5375
-397 c-5 -34 -24 -255 -47 -543 -17 -220 -17 -1231 0 -1470 19 -269 50 -615
67 -745 8 -63 15 -122 15 -132 0 -17 -27 -18 -515 -18 l-515 0 -9 23 c-12 31
-68 349 -86 492 -73 566 -84 1166 -29 1695 16 158 65 510 90 645 l16 85 510 0
509 0 -6 -32z m1955 -1018 l0 -1050 -890 0 -891 0 281 -417 281 -418 -252 -3
c-139 -1 -254 0 -256 2 -15 14 -66 519 -90 886 -26 396 -23 1205 6 1570 12
151 26 313 31 360 6 47 10 93 10 103 0 16 49 17 885 17 l885 0 0 -1050z m2014
1028 c5 -24 25 -248 48 -533 15 -185 18 -1216 4 -1417 l-8 -128 -934 0 -934 0
0 1050 0 1050 910 0 910 0 4 -22z m1390 -63 c25 -135 74 -487 90 -645 55 -529
44 -1129 -29 -1695 -18 -143 -74 -461 -86 -492 l-9 -23 -598 0 c-329 0 -601 2
-604 5 -2 3 1 53 9 112 44 354 79 878 89 1298 8 412 -17 1044 -56 1395 -6 47
-10 95 -10 108 l0 22 594 0 594 0 16 -85z m-4204 -2415 l0 -250 33 0 c17 0 42
3 55 6 14 4 106 103 224 238 110 127 208 237 218 244 12 9 44 12 100 10 l82
-3 -197 -225 c-109 -124 -215 -244 -237 -267 l-40 -41 30 -29 c17 -15 130
-147 252 -293 l221 -265 -80 -3 c-45 -2 -88 1 -95 5 -8 4 -107 116 -220 248
-113 132 -216 246 -228 252 -13 7 -44 13 -70 13 l-48 0 0 -260 0 -260 -80 0
-80 0 0 565 0 565 80 0 80 0 0 -250z m2825 -14 c-15 -166 -43 -393 -50 -413
-3 -10 -45 -13 -165 -13 -88 0 -160 3 -160 7 0 10 382 584 386 580 2 -2 -3
-74 -11 -161z m-1564 -83 c116 -52 183 -160 183 -298 l1 -80 -279 -3 -279 -2
6 -54 c22 -215 204 -305 404 -200 36 19 72 34 79 34 7 0 24 -15 39 -32 l25
-33 -41 -37 c-67 -61 -134 -82 -269 -82 -129 -1 -175 13 -256 80 -92 75 -151
266 -127 408 28 161 113 264 258 313 59 19 199 12 256 -14z m759 7 c41 -14 82
-19 163 -20 l107 0 0 -40 c0 -34 -4 -42 -26 -50 -14 -6 -39 -10 -56 -10 -30 0
-30 -1 -22 -37 30 -131 -17 -232 -136 -294 -39 -21 -60 -24 -160 -25 l-115 -1
-19 -32 c-15 -26 -17 -37 -7 -57 17 -37 53 -46 222 -53 142 -6 160 -9 212 -35
74 -36 101 -83 95 -162 -9 -107 -94 -194 -230 -235 -93 -28 -253 -23 -341 11
-154 58 -201 200 -98 293 21 19 48 38 60 42 19 6 18 8 -13 36 -59 51 -54 128
13 193 l39 38 -43 39 c-91 84 -99 224 -18 319 58 67 136 98 248 99 44 0 90 -7
125 -19z m-2682 -712 l-123 -183 -707 -2 -708 -2 0 185 0 184 830 0 831 0
-123 -182z m4882 -2 l0 -185 -706 2 -707 2 -124 183 -124 182 830 0 831 0 0
-184z m-5185 -553 c104 -516 265 -1125 410 -1552 19 -58 35 -106 35 -108 0 -2
-176 -2 -391 -1 l-392 3 -59 130 c-213 467 -416 1012 -563 1508 -30 104 -55
193 -55 198 0 5 203 9 488 9 l489 0 38 -187z m4965 179 c0 -21 -88 -308 -172
-562 -134 -407 -302 -835 -467 -1192 l-40 -88 -476 0 c-277 0 -475 4 -475 9 0
5 31 105 69 223 125 383 264 913 350 1333 l37 180 82 3 c45 2 82 5 82 8 0 3
-14 25 -30 50 l-31 44 536 0 c294 0 535 -4 535 -8z m-3200 -967 l0 -875 -564
0 -564 0 -16 48 c-153 480 -242 791 -332 1166 -49 204 -114 504 -114 528 0 4
358 8 795 8 l795 0 0 -875z m1832 870 c7 -7 -39 -230 -107 -520 -66 -281 -175
-668 -277 -990 l-74 -230 -592 -3 -592 -2 0 875 0 875 818 0 c450 0 821 -2
824 -5z"/>
<path d="M6065 4765 c-5 -2 -22 -6 -37 -9 -56 -13 -124 -93 -142 -168 l-6 -28
215 0 c241 0 226 -5 204 75 -14 51 -73 110 -124 124 -38 10 -89 13 -110 6z"/>
<path d="M6813 4768 c-56 -18 -86 -60 -91 -126 -3 -42 1 -68 12 -91 48 -93
214 -107 286 -24 27 30 30 41 30 98 0 58 -3 68 -31 99 -45 52 -127 69 -206 44z"/>
<path d="M6716 4097 c-68 -64 -56 -136 31 -178 40 -19 64 -23 143 -24 154 0
240 48 240 134 0 76 -66 101 -266 101 l-113 0 -35 -33z"/>
</g>
</svg>
