<?xml version="1.0" standalone="no"?>
<!DOCTYPE svg PUBLIC "-//W3C//DTD SVG 20010904//EN"
 "http://www.w3.org/TR/2001/REC-SVG-20010904/DTD/svg10.dtd">
<svg version="1.0" xmlns="http://www.w3.org/2000/svg"
 width="1200.000000pt" height="1200.000000pt" viewBox="0 0 1200.000000 1200.000000"
 preserveAspectRatio="xMidYMid meet">

<g transform="translate(0.000000,1200.000000) scale(0.100000,-0.100000)"
fill="#000000" stroke="none">
<path d="M4840 4635 l0 -565 70 0 70 0 0 260 0 260 55 0 c30 0 64 -5 77 -11
13 -6 100 -101 193 -210 94 -110 191 -222 216 -249 l45 -50 82 0 82 0 -232
275 c-127 152 -242 285 -256 296 l-26 20 26 22 c29 25 448 503 448 512 0 3
-34 5 -75 5 -91 0 -71 16 -305 -255 -220 -255 -208 -245 -276 -245 l-54 0 0
250 0 250 -70 0 -70 0 0 -565z"/>
<path d="M6000 4865 c-103 -29 -173 -91 -223 -195 -26 -55 -32 -80 -35 -159
-11 -245 97 -405 301 -442 114 -21 258 11 344 77 18 14 33 29 33 34 0 5 -12
24 -28 41 l-28 31 -71 -37 c-120 -63 -249 -59 -332 11 -35 29 -77 123 -86 192
l-7 52 276 0 276 0 11 24 c15 33 -5 155 -35 214 -31 61 -89 116 -149 142 -64
29 -174 35 -247 15z m228 -128 c47 -30 69 -67 81 -132 l8 -45 -220 0 -219 0 6
31 c24 119 108 182 237 176 52 -2 75 -8 107 -30z"/>
<path d="M6782 4865 c-76 -21 -133 -64 -166 -125 -25 -46 -28 -60 -24 -124 3
-61 8 -80 32 -115 16 -23 42 -49 57 -58 l27 -16 -43 -43 c-67 -65 -73 -140
-15 -194 l29 -27 -47 -30 c-74 -46 -100 -121 -68 -196 74 -174 485 -197 632
-34 47 51 64 94 64 160 0 126 -93 177 -324 177 -107 0 -166 11 -191 36 -22 23
-19 67 8 92 21 20 31 22 93 16 139 -13 255 39 307 137 26 48 28 62 24 119 -3
36 -8 72 -11 81 -6 14 2 18 41 24 59 9 73 19 73 56 l0 29 -100 0 c-77 0 -111
5 -152 21 -69 27 -177 33 -246 14z m221 -118 c20 -15 41 -42 47 -63 15 -45 8
-115 -15 -150 -39 -59 -160 -82 -243 -44 -77 35 -105 150 -55 226 44 68 195
86 266 31z m51 -628 c113 -30 113 -145 0 -200 -65 -31 -197 -38 -277 -15 -120
35 -145 142 -48 209 30 20 41 22 159 19 70 -2 144 -8 166 -13z"/>
</g>
</svg>
