<?xml version="1.0" standalone="no"?>
<!DOCTYPE svg PUBLIC "-//W3C//DTD SVG 20010904//EN"
 "http://www.w3.org/TR/2001/REC-SVG-20010904/DTD/svg10.dtd">
<svg version="1.0" xmlns="http://www.w3.org/2000/svg"
 width="1200.000000pt" height="1200.000000pt" viewBox="0 0 1200.000000 1200.000000"
 preserveAspectRatio="xMidYMid meet">

<g transform="translate(0.000000,1200.000000) scale(0.100000,-0.100000)"
fill="#000000" stroke="none">
<path d="M3582 10234 c-29 -20 -67 -96 -200 -404 -204 -474 -417 -1072 -549
-1545 l-28 -100 -72 -5 c-58 -4 -77 -10 -95 -28 -23 -22 -23 -26 -26 -323 -2
-252 0 -305 12 -331 14 -28 13 -45 -19 -232 -72 -421 -105 -823 -105 -1264 0
-507 42 -943 139 -1457 8 -42 7 -53 -7 -69 -15 -16 -17 -54 -20 -314 -2 -211
1 -304 9 -324 17 -40 57 -58 132 -58 l65 0 16 -67 c26 -102 170 -557 243 -763
178 -509 449 -1145 504 -1183 22 -16 204 -17 2419 -17 2163 0 2398 2 2418 16
28 19 65 92 177 349 210 480 419 1060 551 1530 l38 135 63 0 c79 0 108 11 128
50 14 26 15 72 13 329 -3 265 -5 301 -20 318 -14 15 -15 26 -8 58 20 85 80
489 99 665 30 273 41 481 41 800 0 443 -33 844 -105 1268 -32 186 -34 206 -20
232 12 24 15 81 15 317 0 363 2 359 -140 365 l-54 3 -29 100 c-91 321 -266
844 -379 1134 -71 184 -266 637 -314 733 -18 36 -44 74 -56 82 -20 14 -255 16
-2418 16 -2163 0 -2398 -2 -2418 -16z m868 -170 c0 -4 -31 -90 -69 -193 -167
-451 -307 -970 -417 -1548 l-27 -143 -469 0 c-383 0 -468 2 -468 13 0 54 201
675 325 1005 117 312 293 733 356 855 9 16 38 17 389 17 209 0 380 -3 380 -6z
m1340 -939 l0 -945 -830 0 -830 0 0 25 c0 103 155 758 277 1170 63 216 193
579 238 664 l16 31 564 0 565 0 0 -945z m1427 830 c123 -306 282 -827 377
-1240 34 -148 106 -504 106 -524 0 -8 -265 -11 -860 -11 l-860 0 0 945 0 945
596 -2 596 -3 45 -110z m1155 -15 c144 -315 310 -739 442 -1133 83 -245 186
-587 186 -614 0 -11 -96 -13 -557 -11 l-558 3 -8 55 c-5 30 -33 172 -64 315
-121 575 -272 1089 -438 1498 -7 16 18 17 466 15 l473 -3 58 -125z m838 -2125
l0 -185 -3210 0 -3210 0 0 185 0 185 3210 0 3210 0 0 -185z m-5375 -402 c-8
-61 -24 -241 -42 -478 -21 -282 -25 -1245 -5 -1520 18 -260 51 -622 67 -755 8
-63 15 -123 15 -132 0 -17 -31 -18 -520 -18 -286 0 -520 2 -520 4 0 3 -9 51
-20 108 -45 238 -81 504 -110 823 -18 193 -24 707 -11 935 17 306 61 676 117
983 l16 87 509 0 509 0 -5 -37z m1955 -1013 l0 -1050 -889 0 -889 0 279 -417
280 -418 -252 -3 c-139 -1 -254 0 -257 3 -14 14 -72 605 -94 950 -8 131 -13
400 -12 715 1 507 10 710 49 1099 8 79 15 150 15 157 0 12 142 14 885 14 l885
0 0 -1050z m2014 1028 c6 -27 31 -300 47 -513 25 -339 27 -1075 4 -1452 l-7
-113 -934 0 -934 0 0 1050 0 1050 910 0 910 0 4 -22z m1390 -65 c56 -307 100
-677 117 -983 13 -228 7 -742 -11 -935 -29 -319 -65 -585 -110 -823 -11 -57
-20 -105 -20 -108 0 -7 -1209 -4 -1213 4 -2 4 2 57 9 117 42 338 79 860 89
1260 10 387 -16 1051 -55 1415 -5 52 -10 105 -10 118 l0 22 594 0 594 0 16
-87z m-4204 -2413 l0 -250 33 0 c17 0 42 3 55 6 14 4 106 103 224 238 110 127
208 237 218 244 12 9 44 12 100 10 l82 -3 -162 -185 c-90 -102 -196 -222 -237
-267 l-74 -82 30 -28 c16 -15 129 -147 251 -293 l221 -265 -80 -3 c-45 -2 -88
1 -95 5 -8 4 -107 116 -220 248 -113 132 -216 246 -228 252 -13 7 -44 13 -70
13 l-48 0 0 -260 0 -260 -80 0 -80 0 0 565 0 565 80 0 80 0 0 -250z m2830 29
c-16 -169 -50 -451 -56 -461 -8 -12 -324 -10 -324 2 0 13 382 581 387 576 2
-2 -1 -55 -7 -117z m-1557 -132 c109 -54 171 -159 172 -292 l0 -80 -279 -3
-279 -2 6 -60 c22 -210 205 -298 404 -194 36 19 72 34 79 34 7 0 24 -15 39
-32 l25 -33 -41 -37 c-67 -61 -134 -82 -269 -82 -129 -1 -175 13 -256 80 -92
74 -149 258 -127 403 33 215 174 335 384 328 69 -2 96 -8 142 -30z m747 13
c41 -14 82 -19 163 -20 l107 0 0 -40 c0 -34 -4 -42 -26 -50 -14 -6 -39 -10
-56 -10 -30 0 -30 0 -21 -42 26 -134 -19 -228 -137 -289 -39 -21 -60 -24 -160
-24 l-115 -1 -19 -36 c-19 -33 -19 -37 -3 -61 22 -33 87 -47 226 -47 170 0
263 -41 292 -127 40 -122 -56 -254 -223 -304 -93 -28 -253 -23 -341 11 -154
58 -201 200 -98 293 21 19 48 38 60 42 19 6 18 8 -14 37 -32 27 -35 35 -35 85
0 50 3 58 43 99 l42 45 -46 49 c-37 38 -50 60 -60 104 -30 135 41 246 186 292
61 19 171 16 235 -6z m-2682 -712 l-123 -183 -707 -2 -708 -2 0 184 0 185 830
0 831 0 -123 -182z m4882 -3 l0 -184 -707 2 -708 2 -123 183 -123 182 831 0
830 0 0 -185z m-5185 -552 c100 -498 274 -1154 415 -1567 16 -50 30 -91 30
-93 0 -2 -177 -2 -392 -1 l-393 3 -87 195 c-148 331 -290 695 -409 1050 -70
211 -179 570 -179 592 0 4 220 8 488 8 l489 0 38 -187z m4965 176 c0 -39 -218
-715 -302 -939 -84 -223 -202 -513 -286 -700 l-87 -195 -477 -3 c-332 -1 -478
1 -478 8 0 6 29 100 65 209 123 379 254 873 349 1326 l42 200 82 3 c45 2 82 5
82 8 0 3 -14 25 -30 50 l-31 44 536 0 c391 0 535 -3 535 -11z m-3200 -964 l0
-875 -564 0 -564 0 -21 63 c-133 413 -237 774 -321 1123 -46 190 -120 532
-120 555 0 5 309 9 795 9 l795 0 0 -875z m1832 870 c3 -3 -12 -88 -32 -188
-90 -430 -189 -801 -343 -1294 l-82 -263 -592 0 -593 0 0 875 0 875 818 0
c450 0 821 -2 824 -5z"/>
<path d="M6043 4760 c-75 -17 -136 -85 -157 -172 l-6 -28 215 0 c241 0 226 -5
204 75 -28 99 -139 153 -256 125z"/>
<path d="M6813 4768 c-56 -18 -86 -60 -91 -126 -7 -97 38 -153 136 -168 125
-19 218 73 192 190 -20 92 -128 139 -237 104z"/>
<path d="M6718 4098 c-70 -66 -58 -137 29 -179 63 -31 212 -34 284 -6 110 42
139 151 51 193 -29 14 -71 19 -183 22 l-145 4 -36 -34z"/>
</g>
</svg>
